<?xml version="1.0" standalone="no"?>
<!DOCTYPE svg PUBLIC "-//W3C//DTD SVG 20010904//EN"
 "http://www.w3.org/TR/2001/REC-SVG-20010904/DTD/svg10.dtd">
<svg version="1.0" xmlns="http://www.w3.org/2000/svg"
 width="204.000000pt" height="192.000000pt" viewBox="0 0 204.000000 192.000000"
 preserveAspectRatio="xMidYMid meet">

<g transform="translate(0.000000,192.000000) scale(0.100000,-0.100000)"
fill="#000000" stroke="none">
<path d="M436 1262 c-3 -3 -6 -137 -6 -299 l0 -293 25 0 25 0 0 294 c0 282 -1
294 -19 299 -11 3 -22 2 -25 -1z"/>
<path d="M530 968 c0 -291 0 -298 20 -298 20 0 20 7 20 298 0 291 0 298 -20
298 -20 0 -20 -7 -20 -298z"/>
<path d="M708 1263 l-88 -4 0 -124 0 -125 95 0 c88 0 95 1 95 20 0 18 -7 20
-70 20 l-70 0 0 35 c0 35 0 35 45 35 38 0 45 3 45 20 0 17 -7 20 -45 20 -43 0
-45 1 -45 30 l0 30 65 0 c63 0 65 1 65 25 0 14 -1 24 -2 23 -2 -1 -42 -4 -90
-5z"/>
<path d="M840 1140 c0 -123 1 -130 20 -130 19 0 20 7 20 130 0 123 -1 130 -20
130 -19 0 -20 -7 -20 -130z"/>
<path d="M1546 1184 c-14 -7 -26 -9 -26 -3 0 5 -11 9 -25 9 -25 0 -25 -1 -25
-90 0 -89 0 -90 25 -90 24 0 25 2 25 65 0 51 4 66 18 74 36 19 52 -4 52 -74 0
-63 1 -65 26 -65 l27 0 -5 75 c-3 41 -10 81 -17 89 -18 21 -47 25 -75 10z"/>
<path d="M952 1183 c-18 -7 -42 -57 -42 -88 0 -37 50 -85 89 -85 36 0 78 18
85 36 8 20 -23 25 -50 7 -20 -13 -30 -14 -49 -5 -14 7 -25 18 -25 27 0 12 13
15 65 15 62 0 65 1 65 24 0 13 -9 35 -21 50 -16 21 -28 26 -62 25 -23 0 -48
-3 -55 -6z m72 -29 c33 -13 17 -34 -24 -34 -41 0 -49 7 -28 28 13 13 28 15 52
6z"/>
<path d="M1100 1184 c0 -5 14 -45 31 -91 26 -69 35 -83 54 -83 18 0 26 14 53
90 l31 90 -23 0 c-18 0 -25 -10 -40 -56 -10 -31 -21 -53 -24 -49 -4 3 -14 27
-23 53 -11 34 -22 48 -37 50 -12 2 -22 0 -22 -4z"/>
<path d="M1312 1183 c-16 -6 -42 -56 -42 -82 0 -53 41 -91 98 -91 28 0 72 24
72 39 0 17 -32 21 -46 6 -9 -8 -20 -15 -25 -15 -20 0 -49 21 -49 35 0 12 15
15 65 15 36 0 65 4 65 9 0 23 -24 73 -40 81 -19 10 -76 12 -98 3z m76 -35 c21
-21 13 -28 -28 -28 -22 0 -40 4 -40 8 0 14 23 32 40 32 9 0 21 -5 28 -12z"/>
<path d="M1010 800 c0 -123 1 -130 20 -130 11 0 20 5 20 12 0 9 3 9 12 0 15
-15 62 -16 88 -2 11 6 25 28 31 49 10 33 9 45 -7 78 -17 33 -24 38 -57 41 -21
2 -45 -2 -53 -9 -12 -10 -14 -4 -14 40 0 44 -3 51 -20 51 -19 0 -20 -7 -20
-130z m128 -35 c4 -28 -21 -65 -44 -65 -43 0 -60 78 -22 104 19 13 25 14 43 2
11 -7 21 -26 23 -41z"/>
<path d="M620 795 l0 -125 80 0 c73 0 80 2 80 20 0 18 -7 20 -55 20 l-55 0 0
105 0 105 -25 0 -25 0 0 -125z"/>
<path d="M832 834 c-12 -8 -22 -22 -22 -30 0 -19 34 -18 50 1 16 19 44 19 60
0 13 -16 11 -18 -45 -30 -67 -14 -94 -55 -59 -89 18 -18 66 -21 95 -6 13 7 19
7 19 0 0 -5 9 -10 20 -10 18 0 20 7 20 70 0 57 -4 74 -20 90 -24 24 -86 27
-118 4z m92 -96 c-11 -36 -54 -52 -69 -28 -13 21 13 40 68 49 5 0 5 -9 1 -21z"/>
<path d="M1228 838 c-41 -34 -19 -84 42 -97 42 -8 56 -41 18 -41 -13 0 -29 5
-34 10 -13 13 -46 2 -41 -14 5 -17 68 -34 96 -26 14 3 33 18 41 33 14 25 13
28 -6 48 -12 11 -36 24 -55 28 -18 3 -34 12 -37 19 -6 19 27 26 54 12 19 -11
27 -11 37 -1 30 30 -79 58 -115 29z"/>
</g>
</svg>
